<svg width="320" height="133" viewBox="0 0 320 133" fill="none" xmlns="http://www.w3.org/2000/svg">
<g filter="url(#filter0_dddd_320_266)">
<path d="M24.84 49V4.2H41.736C44.1893 4.2 46.408 4.82933 48.392 6.088C50.3973 7.32533 51.9867 8.98933 53.16 11.08C54.3333 13.1493 54.92 15.4213 54.92 17.896C54.92 20.4133 54.312 22.7067 53.096 24.776C51.9013 26.8453 50.3013 28.4987 48.296 29.736C46.2907 30.9733 44.104 31.592 41.736 31.592H34.44V49H24.84ZM34.44 21.992H40.648C41.5013 21.992 42.28 21.7787 42.984 21.352C43.688 20.904 44.2533 20.3173 44.68 19.592C45.1067 18.8667 45.32 18.0667 45.32 17.192C45.32 16.3173 45.1067 15.5173 44.68 14.792C44.2533 14.0667 43.688 13.4907 42.984 13.064C42.28 12.616 41.5013 12.392 40.648 12.392H34.44V21.992ZM60.4025 49V4.2H78.6425C81.0958 4.2 83.3145 4.81866 85.2985 6.056C87.2825 7.29333 88.8505 8.95733 90.0025 11.048C91.1758 13.1173 91.7625 15.4 91.7625 17.896C91.7625 19.816 91.4425 21.608 90.8025 23.272C90.1625 24.9147 89.2452 26.376 88.0505 27.656C86.8772 28.9147 85.4905 29.928 83.8905 30.696L94.5145 49H83.4425L73.3305 31.592H70.0025V49H60.4025ZM70.0025 21.992H77.4905C78.3438 21.992 79.1225 21.7787 79.8265 21.352C80.5305 20.904 81.0958 20.3173 81.5225 19.592C81.9492 18.8667 82.1625 18.0667 82.1625 17.192C82.1625 16.3173 81.9492 15.5173 81.5225 14.792C81.0958 14.0667 80.5305 13.4907 79.8265 13.064C79.1225 12.616 78.3438 12.392 77.4905 12.392H70.0025V21.992ZM99.6525 49V4.2H128.197V13.8H109.253V20.2H123.845V29.8H109.253V39.4H128.197V49H99.6525ZM135.215 49L143.919 4.2H152.111L162.159 30.632L172.207 4.2H180.399L189.103 49H179.311L174.639 24.808L165.487 49H158.831L149.679 24.808L145.007 49H135.215ZM196.425 49V4.2H206.025V49H196.425ZM214.653 49V4.2H225.021L241.405 31.656V4.2H251.005V49H240.637L224.253 21.544V49H214.653ZM258.715 49V4.2H273.563C276.656 4.2 279.547 4.78666 282.235 5.96C284.944 7.112 287.323 8.72267 289.371 10.792C291.44 12.84 293.051 15.2187 294.203 17.928C295.376 20.616 295.963 23.5067 295.963 26.6C295.963 29.6933 295.376 32.5947 294.203 35.304C293.051 37.992 291.44 40.3707 289.371 42.44C287.323 44.488 284.944 46.0987 282.235 47.272C279.547 48.424 276.656 49 273.563 49H258.715ZM268.315 39.4H273.563C275.291 39.4 276.923 39.0693 278.459 38.408C279.995 37.7467 281.36 36.8293 282.555 35.656C283.75 34.4827 284.678 33.128 285.339 31.592C286.022 30.0347 286.363 28.3707 286.363 26.6C286.363 24.8293 286.022 23.176 285.339 21.64C284.678 20.104 283.75 18.7493 282.555 17.576C281.382 16.3813 280.027 15.4533 278.491 14.792C276.955 14.1307 275.312 13.8 273.563 13.8H268.315V39.4Z" fill="black"/>
</g>
<defs>
<filter id="filter0_dddd_320_266" x="0.840027" y="0.200195" width="319.123" height="132.8" filterUnits="userSpaceOnUse" color-interpolation-filters="sRGB">
<feFlood flood-opacity="0" result="BackgroundImageFix"/>
<feColorMatrix in="SourceAlpha" type="matrix" values="0 0 0 0 0 0 0 0 0 0 0 0 0 0 0 0 0 0 127 0" result="hardAlpha"/>
<feOffset dy="4"/>
<feGaussianBlur stdDeviation="4"/>
<feColorMatrix type="matrix" values="0 0 0 0 0 0 0 0 0 0 0 0 0 0 0 0 0 0 0.1 0"/>
<feBlend mode="normal" in2="BackgroundImageFix" result="effect1_dropShadow_320_266"/>
<feColorMatrix in="SourceAlpha" type="matrix" values="0 0 0 0 0 0 0 0 0 0 0 0 0 0 0 0 0 0 127 0" result="hardAlpha"/>
<feOffset dy="15"/>
<feGaussianBlur stdDeviation="7.5"/>
<feColorMatrix type="matrix" values="0 0 0 0 0 0 0 0 0 0 0 0 0 0 0 0 0 0 0.09 0"/>
<feBlend mode="normal" in2="effect1_dropShadow_320_266" result="effect2_dropShadow_320_266"/>
<feColorMatrix in="SourceAlpha" type="matrix" values="0 0 0 0 0 0 0 0 0 0 0 0 0 0 0 0 0 0 127 0" result="hardAlpha"/>
<feOffset dy="34"/>
<feGaussianBlur stdDeviation="10"/>
<feColorMatrix type="matrix" values="0 0 0 0 0 0 0 0 0 0 0 0 0 0 0 0 0 0 0.05 0"/>
<feBlend mode="normal" in2="effect2_dropShadow_320_266" result="effect3_dropShadow_320_266"/>
<feColorMatrix in="SourceAlpha" type="matrix" values="0 0 0 0 0 0 0 0 0 0 0 0 0 0 0 0 0 0 127 0" result="hardAlpha"/>
<feOffset dy="60"/>
<feGaussianBlur stdDeviation="12"/>
<feColorMatrix type="matrix" values="0 0 0 0 0 0 0 0 0 0 0 0 0 0 0 0 0 0 0.01 0"/>
<feBlend mode="normal" in2="effect3_dropShadow_320_266" result="effect4_dropShadow_320_266"/>
<feBlend mode="normal" in="SourceGraphic" in2="effect4_dropShadow_320_266" result="shape"/>
</filter>
</defs>
</svg>
