<svg width="1550" height="276" viewBox="0 0 1550 276" fill="none" xmlns="http://www.w3.org/2000/svg">
<g opacity="0.1" filter="url(#filter0_f_628_8489)">
<path d="M11.9984 264V12H107.038C120.838 12 133.318 15.54 144.478 22.62C155.758 29.58 164.698 38.94 171.298 50.7C177.898 62.34 181.198 75.12 181.198 89.04C181.198 103.2 177.778 116.1 170.938 127.74C164.218 139.38 155.218 148.68 143.938 155.64C132.658 162.6 120.358 166.08 107.038 166.08H65.9984V264H11.9984ZM65.9984 112.08H100.918C105.718 112.08 110.098 110.88 114.058 108.48C118.018 105.96 121.198 102.66 123.598 98.58C125.998 94.5 127.198 90 127.198 85.08C127.198 80.16 125.998 75.66 123.598 71.58C121.198 67.5 118.018 64.26 114.058 61.86C110.098 59.34 105.718 58.08 100.918 58.08H65.9984V112.08ZM212.038 264V12H314.638C328.438 12 340.918 15.48 352.078 22.44C363.238 29.4 372.058 38.76 378.538 50.52C385.138 62.16 388.438 75 388.438 89.04C388.438 99.84 386.638 109.92 383.038 119.28C379.438 128.52 374.278 136.74 367.558 143.94C360.958 151.02 353.158 156.72 344.158 161.04L403.918 264H341.638L284.758 166.08H266.038V264H212.038ZM266.038 112.08H308.158C312.958 112.08 317.338 110.88 321.298 108.48C325.258 105.96 328.438 102.66 330.838 98.58C333.238 94.5 334.438 90 334.438 85.08C334.438 80.16 333.238 75.66 330.838 71.58C328.438 67.5 325.258 64.26 321.298 61.86C317.338 59.34 312.958 58.08 308.158 58.08H266.038V112.08ZM432.819 264V12H593.379V66H486.819V102H568.899V156H486.819V210H593.379V264H432.819ZM632.858 264L681.818 12H727.898L784.418 160.68L840.938 12H887.018L935.978 264H880.898L854.618 127.92L803.138 264H765.698L714.218 127.92L687.938 264H632.858ZM977.164 264V12H1031.16V264H977.164ZM1079.69 264V12H1138.01L1230.17 166.44V12H1284.17V264H1225.85L1133.69 109.56V264H1079.69ZM1327.55 264V12H1411.07C1428.47 12 1444.73 15.3 1459.85 21.9C1475.09 28.38 1488.47 37.44 1499.99 49.08C1511.63 60.6 1520.69 73.98 1527.17 89.22C1533.77 104.34 1537.07 120.6 1537.07 138C1537.07 155.4 1533.77 171.72 1527.17 186.96C1520.69 202.08 1511.63 215.46 1499.99 227.1C1488.47 238.62 1475.09 247.68 1459.85 254.28C1444.73 260.76 1428.47 264 1411.07 264H1327.55ZM1381.55 210H1411.07C1420.79 210 1429.97 208.14 1438.61 204.42C1447.25 200.7 1454.93 195.54 1461.65 188.94C1468.37 182.34 1473.59 174.72 1477.31 166.08C1481.15 157.32 1483.07 147.96 1483.07 138C1483.07 128.04 1481.15 118.74 1477.31 110.1C1473.59 101.46 1468.37 93.84 1461.65 87.24C1455.05 80.52 1447.43 75.3 1438.79 71.58C1430.15 67.86 1420.91 66 1411.07 66H1381.55V210Z" fill="#379A6F"/>
</g>
<defs>
<filter id="filter0_f_628_8489" x="0" y="0" width="1549.07" height="276" filterUnits="userSpaceOnUse" color-interpolation-filters="sRGB">
<feFlood flood-opacity="0" result="BackgroundImageFix"/>
<feBlend mode="normal" in="SourceGraphic" in2="BackgroundImageFix" result="shape"/>
<feGaussianBlur stdDeviation="6" result="effect1_foregroundBlur_628_8489"/>
</filter>
</defs>
</svg>
